<?xml version="1.0" encoding="UTF-8" standalone="no"?>
<!-- Created with Inkscape (http://www.inkscape.org/) -->
<!-- Created By Hans Root (HRoot) -->
<!-- https://hroot.dev -->

<svg
   width="135.02696mm"
   height="171.45575mm"
   viewBox="0 0 135.02696 171.45575"
   version="1.1"
   id="svg5"
   xmlns="http://www.w3.org/2000/svg"
   xmlns:svg="http://www.w3.org/2000/svg">
  <defs
     id="defs2" />
  <g
     id="layer1"
     transform="translate(-46.91595,-48.007611)">
    <g
       id="g914">
      <g
         id="g13173"
         transform="matrix(2.2751197,0,0,2.2751197,-238.79535,63.264574)">
        <g
           id="g13293">
          <g
             id="g13915">
            <g
               id="g13902">
              <g
                 id="g13890">
                <g
                   id="g13879">
                  <g
                     id="g13869">
                    <g
                       id="g15102"
                       transform="translate(0.90612627,-0.95069052)">
                      <g
                         id="g15087">
                        <g
                           id="g15073">
                          <g
                             id="g15060">
                            <g
                               id="g15048">
                              <g
                                 id="g15037">
                                <path
                                   style="fill:#cfcfcf;fill-opacity:1;stroke:none;stroke-width:0.264583px;stroke-linecap:butt;stroke-linejoin:miter;stroke-opacity:1"
                                   d="m 138.54335,-1.697487 -4.28974,4.3729933 -2.34102,4.5479861 -3.41417,3.3570906 -3.07892,4.332075 0.16705,3.475328 1.11101,5.147169 4.08218,4.369009 2.29418,0.875837 2.31518,0.583235 11.2657,0.251364 19.19111,0.05308 8.84064,-0.574212 5.0787,-3.291207 1.97155,-2.175048 0.80092,-2.054186 0.88053,-2.421483 0.0475,-2.445803 -0.23735,-3.150287 -1.01512,-1.990986 -1.66733,-2.4971888 -2.99537,-2.7609541 -2.54943,-1.0558401 -2.86936,-0.6383703 -3.09119,0.1385218 -1.6868,0.2634906 -1.5175,0.6538069 -1.72791,-1.5178725 -2.19577,-3.25132673 -2.09952,-2.10349227 -3.31229,-2.18212 -4.69678,-1.5921514 -3.43198,-0.3747929 -3.17507,0.4593588 -3.6739,1.1240627 -2.49191,1.4128265 z"
                                   id="path3499" />
                                <path
                                   style="fill:#6ea7d2;stroke-width:0.352778"
                                   d="m 148.22771,55.96673 c -0.37009,-0.96445 0.0171,-6.34887 0.46726,-6.4979 0.33328,-0.11034 0.44097,0.72277 0.44097,3.41119 0,2.20842 -0.13795,3.55717 -0.36384,3.55717 -0.20012,0 -0.4451,-0.21171 -0.54439,-0.47046 z m -6.14732,-4.64482 c 0,-2.57136 0.10847,-3.37403 0.44097,-3.26319 0.3084,0.1028 0.44097,1.08381 0.44097,3.26319 0,2.17939 -0.13257,3.1604 -0.44097,3.2632 -0.3325,0.11083 -0.44097,-0.69184 -0.44097,-3.2632 z m 16.37722,2.87924 c -0.36669,-0.95559 0.0171,-5.99435 0.46791,-6.14352 0.33225,-0.10993 0.44098,0.68762 0.44098,3.23489 0,2.08725 -0.13922,3.38078 -0.36385,3.38078 -0.20012,0 -0.44538,-0.21247 -0.54504,-0.47215 z m -5.08834,-4.64313 c 0,-2.57136 0.10847,-3.37403 0.44098,-3.26319 0.3084,0.1028 0.44097,1.08381 0.44097,3.26319 0,2.17939 -0.13257,3.1604 -0.44097,3.2632 -0.33251,0.11083 -0.44098,-0.69184 -0.44098,-3.2632 z m 13.05278,0 c 0,-2.57136 0.10847,-3.37403 0.44097,-3.26319 0.30841,0.1028 0.44098,1.08381 0.44098,3.26319 0,2.17939 -0.13257,3.1604 -0.44098,3.2632 -0.3325,0.11083 -0.44097,-0.69184 -0.44097,-3.2632 z m -21.16666,-3.35139 c 0,-2.71247 0.10747,-3.55075 0.44097,-3.43958 0.31078,0.10359 0.44097,1.11909 0.44097,3.43958 0,2.3205 -0.13019,3.33599 -0.44097,3.43959 -0.3335,0.11116 -0.44097,-0.72712 -0.44097,-3.43959 z m 16.37787,3.05732 c -0.37009,-0.96445 0.0171,-6.34887 0.46726,-6.4979 0.33328,-0.11034 0.44098,0.72277 0.44098,3.41119 0,2.20842 -0.13796,3.55717 -0.36385,3.55717 -0.20012,0 -0.44509,-0.21171 -0.54439,-0.47046 z m -22.9312,-1.76558 c -0.36669,-0.95559 0.0171,-5.99435 0.46791,-6.14352 0.33225,-0.10993 0.44097,0.68763 0.44097,3.23489 0,2.08725 -0.13921,3.38078 -0.36384,3.38078 -0.20012,0 -0.44539,-0.21247 -0.54504,-0.47215 z m 30.54221,-2.87924 c 0,-2.57135 0.10847,-3.37403 0.44098,-3.26319 0.3084,0.1028 0.44097,1.08381 0.44097,3.26319 0,2.17939 -0.13257,3.1604 -0.44097,3.2632 -0.33251,0.11083 -0.44098,-0.69184 -0.44098,-3.2632 z M 156.1915,42.85524 c 0,-2.57135 0.10847,-3.37403 0.44097,-3.26319 0.3084,0.1028 0.44097,1.08381 0.44097,3.26319 0,2.17939 -0.13257,3.1604 -0.44097,3.2632 -0.3325,0.11084 -0.44097,-0.69184 -0.44097,-3.2632 z m -7.40833,-1.5875 c 0,-2.71246 0.10747,-3.55075 0.44097,-3.43958 0.31078,0.10359 0.44097,1.11909 0.44097,3.43958 0,2.3205 -0.13019,3.336 -0.44097,3.43959 -0.3335,0.11117 -0.44097,-0.72712 -0.44097,-3.43959 z m -5.495,-0.47215 c -0.36669,-0.95559 0.0171,-5.99435 0.46791,-6.14352 0.33225,-0.10993 0.44097,0.68763 0.44097,3.23489 0,2.08725 -0.13921,3.38078 -0.36384,3.38078 -0.20012,0 -0.44539,-0.21247 -0.54504,-0.47215 z m 16.4311,-2.87923 c 0,-2.57136 0.10847,-3.37403 0.44098,-3.2632 0.3084,0.1028 0.44097,1.08381 0.44097,3.2632 0,2.17938 -0.13257,3.16039 -0.44097,3.26319 -0.33251,0.11084 -0.44098,-0.69184 -0.44098,-3.26319 z m -6.9061,1.11534 c -0.36669,-0.95559 0.0171,-5.99435 0.46791,-6.14351 0.33225,-0.10994 0.44097,0.68762 0.44097,3.23488 0,2.08726 -0.13921,3.38079 -0.36385,3.38079 -0.20012,0 -0.44538,-0.21248 -0.54503,-0.47216 z m 12.34722,0 c -0.36669,-0.95559 0.0171,-5.99435 0.46791,-6.14351 0.33225,-0.10994 0.44097,0.68762 0.44097,3.23488 0,2.08726 -0.13921,3.38079 -0.36384,3.38079 -0.20012,0 -0.44539,-0.21248 -0.54504,-0.47216 z"
                                   id="path942" />
                                <path
                                   style="fill:#4498d5;stroke-width:0.449549"
                                   d="m 137.25907,68.0972 c -5.5476,-0.990102 -4.69358,-2.79387 1.17499,-3.775842 0.9023,-0.150979 2.31838,-0.623189 3.14684,-1.049344 1.3358,-0.687134 3.0836,-1.33348 15.4423,-1.29813 10.78706,0.03084 14.38539,0.748634 15.9248,1.247375 1.09385,0.354372 2.06785,0.88144 2.16444,1.171232 0.20247,0.607412 -2.20194,1.334076 -6.2891,1.900673 -1.54504,0.214199 -4.66902,1.674951 -5.65802,2.031363 -2.29603,0.827424 -21.50618,0.55798 -25.90625,-0.227327 z"
                                   id="path936" />
                                <path
                                   style="fill:#8e8e8e;stroke-width:0.352778"
                                   d="m 178.81666,15.977767 c -0.12935,-0.12934 -0.23518,-0.61348 -0.23518,-1.07585 0,-0.92919 -0.82933,-2.7411 -1.71741,-3.75216 -0.78219,-0.89052 -2.43938,-1.7232004 -3.92704,-1.9732104 -1.42475,-0.23944 -1.69807,-1.18834 -0.39537,-1.37257 3.10733,-0.43946 7.41957,3.7680804 7.44318,7.2624504 0.007,1.07927 -0.5587,1.52082 -1.16818,0.91134 z m 0.82315,-1.01086 c 0,-2.29156 -1.97907,-5.0736604 -4.40972,-6.1990204 -1.51577,-0.70178 -3.53779,-0.90305 -3.175,-0.31604 0.11992,0.19403 0.53248,0.35278 0.91682,0.35278 0.96433,0 3.16181,1.1722 4.069,2.1705304 1.05585,1.16192 1.89334,2.92488 1.89334,3.98556 0,0.4947 0.15875,0.89946 0.35278,0.89946 0.19403,0 0.35278,-0.40197 0.35278,-0.89327 z"
                                   id="path934" />
                                <path
                                   style="fill:#707070;stroke-width:0.352778"
                                   d="m 141.53982,24.228957 c 0,-0.50556 1.32816,-1.76389 1.86178,-1.76389 0.70694,0 2.01877,1.04459 2.01877,1.60751 0,0.68421 -0.21988,0.64205 -1.06642,-0.20448 -0.56681,-0.56682 -0.85713,-0.63684 -1.41111,-0.34036 -0.3836,0.20529 -0.69747,0.52643 -0.69747,0.71363 0,0.1872 -0.15875,0.34037 -0.35277,0.34037 -0.19403,0 -0.35278,-0.15875 -0.35278,-0.35278 z M 139.20973,4.3939766 c 0.58408,-2.92039 3.94532,-5.56502 7.07296,-5.56502 2.14137,0 1.78577,0.56473002 -0.49351,0.78374002 -2.52369,0.24249 -4.31656,1.54312998 -5.46057,3.96136998 -1.04294,2.20458 -1.45641,2.50757 -1.11888,0.81991 z"
                                   id="path924" />
                                <path
                                   style="fill:#526479;stroke-width:0.352778"
                                   d="m 143.73057,69.330202 c -8.04354,-0.45688 -15.33759,-1.58057 -17.81528,-2.74456 -5.60618,-2.63371 8.50583,-5.33528 27.86945,-5.33528 15.61961,0 29.10416,1.87759 29.10416,4.05246 0,2.96876 -20.56282,5.08363 -39.15833,4.02738 z m 10.14686,-1.02205 c 5.3821,0.10089 6.68905,1.8e-4 8.90314,-0.686 1.16417,-0.36079 3.20235,-0.81935 4.5293,-1.01903 2.39031,-0.35968 3.76098,-1.11685 3.76098,-2.0776 0,-1.53572 -7.65214,-2.70576 -14.64028,-2.23854 -1.74625,0.11676 -3.88807,0.10899 -4.75961,-0.0172 -2.22148,-0.3218 -6.20966,-0.0144 -7.91462,0.61 -0.79028,0.28943 -2.42077,0.74519 -3.6233,1.0128 -2.75984,0.61416 -3.63441,1.08256 -3.63441,1.94651 0,0.76822 1.05981,1.54467 2.64583,1.9384 1.85081,0.45946 6.97719,0.81253 9.26492,0.6381 1.21515,-0.0927 3.67577,-0.14097 5.46805,-0.10738 z"
                                   id="path920" />
                                <path
                                   style="fill:#494b4c;stroke-width:0.352778"
                                   d="m 148.52046,22.918858 c -1.37103,-0.76726 -0.15171,-2.76889 1.23472,-2.0269 0.34456,0.1844 0.62647,0.64161 0.62647,1.01601 0,0.88737 -1.05652,1.46121 -1.86119,1.01089 z"
                                   id="path14528" />
                                <path
                                   style="fill:#494b4c;stroke-width:0.352778"
                                   d="m 133.50731,29.598927 c -4.51839,-1.06306 -8.3326,-5.79784 -8.6469,-10.73386 -0.25894,-4.06658 1.45549,-7.76362 4.7387,-10.2186804 1.05621,-0.7898 1.79705,-1.84975 2.8922,-4.13803 3.17084,-6.62532 9.01483,-10.30618 16.29471,-10.2633 6.34621,0.0374 12.03457,3.34616 15.3142,8.90789 0.6364,1.07922 1.38011,1.92885 1.65269,1.88805 0.27258,-0.0408 1.52017,-0.32927 2.77243,-0.64104 4.91819,-1.2245 10.61423,1.07471 13.35455,5.39057 5.13268,8.0837204 0.59873,18.3007704 -8.7978,19.8254704 -2.77136,0.44969 -37.65486,0.43464 -39.57478,-0.0171 z m 42.49479,-1.78178 c 2.42865,-1.13864 4.53562,-3.18262 5.84308,-5.6684 0.87252,-1.65884 0.9805,-2.2332 0.9805,-5.21552 0,-2.98232 -0.10798,-3.55668 -0.9805,-5.21552 -1.31079,-2.4921204 -3.41968,-4.5343704 -5.84308,-5.6584604 -1.63663,-0.75914 -2.49652,-0.92215 -4.8147,-0.9127 -1.86303,0.008 -3.29115,0.21598 -4.20196,0.61316 -0.75885,0.33092 -1.63197,0.52063 -1.94027,0.42158 -0.3083,-0.099 -1.0368,-1.06627 -1.61888,-2.14939 -1.42819,-2.65752 -4.88369,-5.91228 -7.65254,-7.20798 -6.76231,-3.16447 -13.03532,-1.94044 -18.61727,3.63274002 -1.79209,1.78926998 -4.24546,5.75560998 -4.24546,6.86358998 0,0.19503 -1.03931,1.26706 -2.30958,2.3823 -3.16624,2.7798004 -4.19697,4.8113104 -4.20561,8.2890104 -0.005,2.11924 0.1756,3.03522 0.90873,4.60221 1.50636,3.21971 3.52366,5.14161 6.30973,6.01135 0.48633,0.15183 9.77423,0.24682 20.63978,0.2111 l 19.75555,-0.0649 z m -38.95505,-4.93414 c -1.37103,-0.76726 -0.15171,-2.76889 1.23472,-2.0269 0.34456,0.1844 0.62647,0.64161 0.62647,1.01601 0,0.88737 -1.05652,1.46121 -1.86119,1.01089 z"
                                   id="path916" />
                              </g>
                            </g>
                          </g>
                        </g>
                      </g>
                    </g>
                  </g>
                </g>
              </g>
            </g>
          </g>
        </g>
      </g>
    </g>
  </g>
</svg>
